%TF.GenerationSoftware,KiCad,Pcbnew,(6.0.11)*%
%TF.CreationDate,2023-04-16T19:35:35-07:00*%
%TF.ProjectId,FFRV_PCB_V1,46465256-5f50-4434-925f-56312e6b6963,rev?*%
%TF.SameCoordinates,Original*%
%TF.FileFunction,Legend,Top*%
%TF.FilePolarity,Positive*%
%FSLAX46Y46*%
G04 Gerber Fmt 4.6, Leading zero omitted, Abs format (unit mm)*
G04 Created by KiCad (PCBNEW (6.0.11)) date 2023-04-16 19:35:35*
%MOMM*%
%LPD*%
G01*
G04 APERTURE LIST*
%ADD10C,0.150000*%
%ADD11C,0.120000*%
G04 APERTURE END LIST*
D10*
%TO.C,REF\u002A\u002A*%
X25336666Y-159512380D02*
X25003333Y-159036190D01*
X24765238Y-159512380D02*
X24765238Y-158512380D01*
X25146190Y-158512380D01*
X25241428Y-158560000D01*
X25289047Y-158607619D01*
X25336666Y-158702857D01*
X25336666Y-158845714D01*
X25289047Y-158940952D01*
X25241428Y-158988571D01*
X25146190Y-159036190D01*
X24765238Y-159036190D01*
X25765238Y-158988571D02*
X26098571Y-158988571D01*
X26241428Y-159512380D02*
X25765238Y-159512380D01*
X25765238Y-158512380D01*
X26241428Y-158512380D01*
X27003333Y-158988571D02*
X26670000Y-158988571D01*
X26670000Y-159512380D02*
X26670000Y-158512380D01*
X27146190Y-158512380D01*
X27670000Y-158512380D02*
X27670000Y-158750476D01*
X27431904Y-158655238D02*
X27670000Y-158750476D01*
X27908095Y-158655238D01*
X27527142Y-158940952D02*
X27670000Y-158750476D01*
X27812857Y-158940952D01*
X28431904Y-158512380D02*
X28431904Y-158750476D01*
X28193809Y-158655238D02*
X28431904Y-158750476D01*
X28670000Y-158655238D01*
X28289047Y-158940952D02*
X28431904Y-158750476D01*
X28574761Y-158940952D01*
%TO.C,U4*%
X97242380Y-70611904D02*
X98051904Y-70611904D01*
X98147142Y-70564285D01*
X98194761Y-70516666D01*
X98242380Y-70421428D01*
X98242380Y-70230952D01*
X98194761Y-70135714D01*
X98147142Y-70088095D01*
X98051904Y-70040476D01*
X97242380Y-70040476D01*
X97575714Y-69135714D02*
X98242380Y-69135714D01*
X97194761Y-69373809D02*
X97909047Y-69611904D01*
X97909047Y-68992857D01*
%TO.C,J4*%
X54272380Y-115333333D02*
X54986666Y-115333333D01*
X55129523Y-115380952D01*
X55224761Y-115476190D01*
X55272380Y-115619047D01*
X55272380Y-115714285D01*
X54605714Y-114428571D02*
X55272380Y-114428571D01*
X54224761Y-114666666D02*
X54939047Y-114904761D01*
X54939047Y-114285714D01*
%TO.C,C5*%
X133183333Y-60027142D02*
X133135714Y-60074761D01*
X132992857Y-60122380D01*
X132897619Y-60122380D01*
X132754761Y-60074761D01*
X132659523Y-59979523D01*
X132611904Y-59884285D01*
X132564285Y-59693809D01*
X132564285Y-59550952D01*
X132611904Y-59360476D01*
X132659523Y-59265238D01*
X132754761Y-59170000D01*
X132897619Y-59122380D01*
X132992857Y-59122380D01*
X133135714Y-59170000D01*
X133183333Y-59217619D01*
X134088095Y-59122380D02*
X133611904Y-59122380D01*
X133564285Y-59598571D01*
X133611904Y-59550952D01*
X133707142Y-59503333D01*
X133945238Y-59503333D01*
X134040476Y-59550952D01*
X134088095Y-59598571D01*
X134135714Y-59693809D01*
X134135714Y-59931904D01*
X134088095Y-60027142D01*
X134040476Y-60074761D01*
X133945238Y-60122380D01*
X133707142Y-60122380D01*
X133611904Y-60074761D01*
X133564285Y-60027142D01*
%TO.C,R4*%
X93813333Y-88732380D02*
X93480000Y-88256190D01*
X93241904Y-88732380D02*
X93241904Y-87732380D01*
X93622857Y-87732380D01*
X93718095Y-87780000D01*
X93765714Y-87827619D01*
X93813333Y-87922857D01*
X93813333Y-88065714D01*
X93765714Y-88160952D01*
X93718095Y-88208571D01*
X93622857Y-88256190D01*
X93241904Y-88256190D01*
X94670476Y-88065714D02*
X94670476Y-88732380D01*
X94432380Y-87684761D02*
X94194285Y-88399047D01*
X94813333Y-88399047D01*
%TO.C,R8*%
X59492380Y-80176666D02*
X59016190Y-80510000D01*
X59492380Y-80748095D02*
X58492380Y-80748095D01*
X58492380Y-80367142D01*
X58540000Y-80271904D01*
X58587619Y-80224285D01*
X58682857Y-80176666D01*
X58825714Y-80176666D01*
X58920952Y-80224285D01*
X58968571Y-80271904D01*
X59016190Y-80367142D01*
X59016190Y-80748095D01*
X58920952Y-79605238D02*
X58873333Y-79700476D01*
X58825714Y-79748095D01*
X58730476Y-79795714D01*
X58682857Y-79795714D01*
X58587619Y-79748095D01*
X58540000Y-79700476D01*
X58492380Y-79605238D01*
X58492380Y-79414761D01*
X58540000Y-79319523D01*
X58587619Y-79271904D01*
X58682857Y-79224285D01*
X58730476Y-79224285D01*
X58825714Y-79271904D01*
X58873333Y-79319523D01*
X58920952Y-79414761D01*
X58920952Y-79605238D01*
X58968571Y-79700476D01*
X59016190Y-79748095D01*
X59111428Y-79795714D01*
X59301904Y-79795714D01*
X59397142Y-79748095D01*
X59444761Y-79700476D01*
X59492380Y-79605238D01*
X59492380Y-79414761D01*
X59444761Y-79319523D01*
X59397142Y-79271904D01*
X59301904Y-79224285D01*
X59111428Y-79224285D01*
X59016190Y-79271904D01*
X58968571Y-79319523D01*
X58920952Y-79414761D01*
%TO.C,C4*%
X77283333Y-60537142D02*
X77235714Y-60584761D01*
X77092857Y-60632380D01*
X76997619Y-60632380D01*
X76854761Y-60584761D01*
X76759523Y-60489523D01*
X76711904Y-60394285D01*
X76664285Y-60203809D01*
X76664285Y-60060952D01*
X76711904Y-59870476D01*
X76759523Y-59775238D01*
X76854761Y-59680000D01*
X76997619Y-59632380D01*
X77092857Y-59632380D01*
X77235714Y-59680000D01*
X77283333Y-59727619D01*
X78140476Y-59965714D02*
X78140476Y-60632380D01*
X77902380Y-59584761D02*
X77664285Y-60299047D01*
X78283333Y-60299047D01*
%TO.C,REF\u002A\u002A*%
X154876666Y-56642380D02*
X154543333Y-56166190D01*
X154305238Y-56642380D02*
X154305238Y-55642380D01*
X154686190Y-55642380D01*
X154781428Y-55690000D01*
X154829047Y-55737619D01*
X154876666Y-55832857D01*
X154876666Y-55975714D01*
X154829047Y-56070952D01*
X154781428Y-56118571D01*
X154686190Y-56166190D01*
X154305238Y-56166190D01*
X155305238Y-56118571D02*
X155638571Y-56118571D01*
X155781428Y-56642380D02*
X155305238Y-56642380D01*
X155305238Y-55642380D01*
X155781428Y-55642380D01*
X156543333Y-56118571D02*
X156210000Y-56118571D01*
X156210000Y-56642380D02*
X156210000Y-55642380D01*
X156686190Y-55642380D01*
X157210000Y-55642380D02*
X157210000Y-55880476D01*
X156971904Y-55785238D02*
X157210000Y-55880476D01*
X157448095Y-55785238D01*
X157067142Y-56070952D02*
X157210000Y-55880476D01*
X157352857Y-56070952D01*
X157971904Y-55642380D02*
X157971904Y-55880476D01*
X157733809Y-55785238D02*
X157971904Y-55880476D01*
X158210000Y-55785238D01*
X157829047Y-56070952D02*
X157971904Y-55880476D01*
X158114761Y-56070952D01*
%TO.C,R7*%
X122992380Y-141136666D02*
X122516190Y-141470000D01*
X122992380Y-141708095D02*
X121992380Y-141708095D01*
X121992380Y-141327142D01*
X122040000Y-141231904D01*
X122087619Y-141184285D01*
X122182857Y-141136666D01*
X122325714Y-141136666D01*
X122420952Y-141184285D01*
X122468571Y-141231904D01*
X122516190Y-141327142D01*
X122516190Y-141708095D01*
X121992380Y-140803333D02*
X121992380Y-140136666D01*
X122992380Y-140565238D01*
%TO.C,R11*%
X130612380Y-146692857D02*
X130136190Y-147026190D01*
X130612380Y-147264285D02*
X129612380Y-147264285D01*
X129612380Y-146883333D01*
X129660000Y-146788095D01*
X129707619Y-146740476D01*
X129802857Y-146692857D01*
X129945714Y-146692857D01*
X130040952Y-146740476D01*
X130088571Y-146788095D01*
X130136190Y-146883333D01*
X130136190Y-147264285D01*
X130612380Y-145740476D02*
X130612380Y-146311904D01*
X130612380Y-146026190D02*
X129612380Y-146026190D01*
X129755238Y-146121428D01*
X129850476Y-146216666D01*
X129898095Y-146311904D01*
X130612380Y-144788095D02*
X130612380Y-145359523D01*
X130612380Y-145073809D02*
X129612380Y-145073809D01*
X129755238Y-145169047D01*
X129850476Y-145264285D01*
X129898095Y-145359523D01*
%TO.C,R13*%
X53792380Y-99702857D02*
X53316190Y-100036190D01*
X53792380Y-100274285D02*
X52792380Y-100274285D01*
X52792380Y-99893333D01*
X52840000Y-99798095D01*
X52887619Y-99750476D01*
X52982857Y-99702857D01*
X53125714Y-99702857D01*
X53220952Y-99750476D01*
X53268571Y-99798095D01*
X53316190Y-99893333D01*
X53316190Y-100274285D01*
X53792380Y-98750476D02*
X53792380Y-99321904D01*
X53792380Y-99036190D02*
X52792380Y-99036190D01*
X52935238Y-99131428D01*
X53030476Y-99226666D01*
X53078095Y-99321904D01*
X52792380Y-98417142D02*
X52792380Y-97798095D01*
X53173333Y-98131428D01*
X53173333Y-97988571D01*
X53220952Y-97893333D01*
X53268571Y-97845714D01*
X53363809Y-97798095D01*
X53601904Y-97798095D01*
X53697142Y-97845714D01*
X53744761Y-97893333D01*
X53792380Y-97988571D01*
X53792380Y-98274285D01*
X53744761Y-98369523D01*
X53697142Y-98417142D01*
%TO.C,J9*%
X146986666Y-95742380D02*
X146986666Y-96456666D01*
X146939047Y-96599523D01*
X146843809Y-96694761D01*
X146700952Y-96742380D01*
X146605714Y-96742380D01*
X147510476Y-96742380D02*
X147700952Y-96742380D01*
X147796190Y-96694761D01*
X147843809Y-96647142D01*
X147939047Y-96504285D01*
X147986666Y-96313809D01*
X147986666Y-95932857D01*
X147939047Y-95837619D01*
X147891428Y-95790000D01*
X147796190Y-95742380D01*
X147605714Y-95742380D01*
X147510476Y-95790000D01*
X147462857Y-95837619D01*
X147415238Y-95932857D01*
X147415238Y-96170952D01*
X147462857Y-96266190D01*
X147510476Y-96313809D01*
X147605714Y-96361428D01*
X147796190Y-96361428D01*
X147891428Y-96313809D01*
X147939047Y-96266190D01*
X147986666Y-96170952D01*
%TO.C,R10*%
X135692380Y-106052857D02*
X135216190Y-106386190D01*
X135692380Y-106624285D02*
X134692380Y-106624285D01*
X134692380Y-106243333D01*
X134740000Y-106148095D01*
X134787619Y-106100476D01*
X134882857Y-106052857D01*
X135025714Y-106052857D01*
X135120952Y-106100476D01*
X135168571Y-106148095D01*
X135216190Y-106243333D01*
X135216190Y-106624285D01*
X135692380Y-105100476D02*
X135692380Y-105671904D01*
X135692380Y-105386190D02*
X134692380Y-105386190D01*
X134835238Y-105481428D01*
X134930476Y-105576666D01*
X134978095Y-105671904D01*
X134692380Y-104481428D02*
X134692380Y-104386190D01*
X134740000Y-104290952D01*
X134787619Y-104243333D01*
X134882857Y-104195714D01*
X135073333Y-104148095D01*
X135311428Y-104148095D01*
X135501904Y-104195714D01*
X135597142Y-104243333D01*
X135644761Y-104290952D01*
X135692380Y-104386190D01*
X135692380Y-104481428D01*
X135644761Y-104576666D01*
X135597142Y-104624285D01*
X135501904Y-104671904D01*
X135311428Y-104719523D01*
X135073333Y-104719523D01*
X134882857Y-104671904D01*
X134787619Y-104624285D01*
X134740000Y-104576666D01*
X134692380Y-104481428D01*
%TO.C,D2*%
X122451904Y-117942380D02*
X122451904Y-116942380D01*
X122690000Y-116942380D01*
X122832857Y-116990000D01*
X122928095Y-117085238D01*
X122975714Y-117180476D01*
X123023333Y-117370952D01*
X123023333Y-117513809D01*
X122975714Y-117704285D01*
X122928095Y-117799523D01*
X122832857Y-117894761D01*
X122690000Y-117942380D01*
X122451904Y-117942380D01*
X123404285Y-117037619D02*
X123451904Y-116990000D01*
X123547142Y-116942380D01*
X123785238Y-116942380D01*
X123880476Y-116990000D01*
X123928095Y-117037619D01*
X123975714Y-117132857D01*
X123975714Y-117228095D01*
X123928095Y-117370952D01*
X123356666Y-117942380D01*
X123975714Y-117942380D01*
%TO.C,U3*%
X39868095Y-91942380D02*
X39868095Y-92751904D01*
X39915714Y-92847142D01*
X39963333Y-92894761D01*
X40058571Y-92942380D01*
X40249047Y-92942380D01*
X40344285Y-92894761D01*
X40391904Y-92847142D01*
X40439523Y-92751904D01*
X40439523Y-91942380D01*
X40820476Y-91942380D02*
X41439523Y-91942380D01*
X41106190Y-92323333D01*
X41249047Y-92323333D01*
X41344285Y-92370952D01*
X41391904Y-92418571D01*
X41439523Y-92513809D01*
X41439523Y-92751904D01*
X41391904Y-92847142D01*
X41344285Y-92894761D01*
X41249047Y-92942380D01*
X40963333Y-92942380D01*
X40868095Y-92894761D01*
X40820476Y-92847142D01*
%TO.C,U2*%
X100832380Y-153171904D02*
X101641904Y-153171904D01*
X101737142Y-153124285D01*
X101784761Y-153076666D01*
X101832380Y-152981428D01*
X101832380Y-152790952D01*
X101784761Y-152695714D01*
X101737142Y-152648095D01*
X101641904Y-152600476D01*
X100832380Y-152600476D01*
X100927619Y-152171904D02*
X100880000Y-152124285D01*
X100832380Y-152029047D01*
X100832380Y-151790952D01*
X100880000Y-151695714D01*
X100927619Y-151648095D01*
X101022857Y-151600476D01*
X101118095Y-151600476D01*
X101260952Y-151648095D01*
X101832380Y-152219523D01*
X101832380Y-151600476D01*
%TO.C,J5*%
X81822380Y-150333333D02*
X82536666Y-150333333D01*
X82679523Y-150380952D01*
X82774761Y-150476190D01*
X82822380Y-150619047D01*
X82822380Y-150714285D01*
X81822380Y-149380952D02*
X81822380Y-149857142D01*
X82298571Y-149904761D01*
X82250952Y-149857142D01*
X82203333Y-149761904D01*
X82203333Y-149523809D01*
X82250952Y-149428571D01*
X82298571Y-149380952D01*
X82393809Y-149333333D01*
X82631904Y-149333333D01*
X82727142Y-149380952D01*
X82774761Y-149428571D01*
X82822380Y-149523809D01*
X82822380Y-149761904D01*
X82774761Y-149857142D01*
X82727142Y-149904761D01*
%TO.C,D1*%
X94511904Y-130612380D02*
X94511904Y-129612380D01*
X94750000Y-129612380D01*
X94892857Y-129660000D01*
X94988095Y-129755238D01*
X95035714Y-129850476D01*
X95083333Y-130040952D01*
X95083333Y-130183809D01*
X95035714Y-130374285D01*
X94988095Y-130469523D01*
X94892857Y-130564761D01*
X94750000Y-130612380D01*
X94511904Y-130612380D01*
X96035714Y-130612380D02*
X95464285Y-130612380D01*
X95750000Y-130612380D02*
X95750000Y-129612380D01*
X95654761Y-129755238D01*
X95559523Y-129850476D01*
X95464285Y-129898095D01*
%TO.C,REF\u002A\u002A*%
X24066666Y-56642380D02*
X23733333Y-56166190D01*
X23495238Y-56642380D02*
X23495238Y-55642380D01*
X23876190Y-55642380D01*
X23971428Y-55690000D01*
X24019047Y-55737619D01*
X24066666Y-55832857D01*
X24066666Y-55975714D01*
X24019047Y-56070952D01*
X23971428Y-56118571D01*
X23876190Y-56166190D01*
X23495238Y-56166190D01*
X24495238Y-56118571D02*
X24828571Y-56118571D01*
X24971428Y-56642380D02*
X24495238Y-56642380D01*
X24495238Y-55642380D01*
X24971428Y-55642380D01*
X25733333Y-56118571D02*
X25400000Y-56118571D01*
X25400000Y-56642380D02*
X25400000Y-55642380D01*
X25876190Y-55642380D01*
X26400000Y-55642380D02*
X26400000Y-55880476D01*
X26161904Y-55785238D02*
X26400000Y-55880476D01*
X26638095Y-55785238D01*
X26257142Y-56070952D02*
X26400000Y-55880476D01*
X26542857Y-56070952D01*
X27161904Y-55642380D02*
X27161904Y-55880476D01*
X26923809Y-55785238D02*
X27161904Y-55880476D01*
X27400000Y-55785238D01*
X27019047Y-56070952D02*
X27161904Y-55880476D01*
X27304761Y-56070952D01*
%TO.C,R12*%
X112387142Y-97592380D02*
X112053809Y-97116190D01*
X111815714Y-97592380D02*
X111815714Y-96592380D01*
X112196666Y-96592380D01*
X112291904Y-96640000D01*
X112339523Y-96687619D01*
X112387142Y-96782857D01*
X112387142Y-96925714D01*
X112339523Y-97020952D01*
X112291904Y-97068571D01*
X112196666Y-97116190D01*
X111815714Y-97116190D01*
X113339523Y-97592380D02*
X112768095Y-97592380D01*
X113053809Y-97592380D02*
X113053809Y-96592380D01*
X112958571Y-96735238D01*
X112863333Y-96830476D01*
X112768095Y-96878095D01*
X113720476Y-96687619D02*
X113768095Y-96640000D01*
X113863333Y-96592380D01*
X114101428Y-96592380D01*
X114196666Y-96640000D01*
X114244285Y-96687619D01*
X114291904Y-96782857D01*
X114291904Y-96878095D01*
X114244285Y-97020952D01*
X113672857Y-97592380D01*
X114291904Y-97592380D01*
%TO.C,R6*%
X51872380Y-80176666D02*
X51396190Y-80510000D01*
X51872380Y-80748095D02*
X50872380Y-80748095D01*
X50872380Y-80367142D01*
X50920000Y-80271904D01*
X50967619Y-80224285D01*
X51062857Y-80176666D01*
X51205714Y-80176666D01*
X51300952Y-80224285D01*
X51348571Y-80271904D01*
X51396190Y-80367142D01*
X51396190Y-80748095D01*
X50872380Y-79319523D02*
X50872380Y-79510000D01*
X50920000Y-79605238D01*
X50967619Y-79652857D01*
X51110476Y-79748095D01*
X51300952Y-79795714D01*
X51681904Y-79795714D01*
X51777142Y-79748095D01*
X51824761Y-79700476D01*
X51872380Y-79605238D01*
X51872380Y-79414761D01*
X51824761Y-79319523D01*
X51777142Y-79271904D01*
X51681904Y-79224285D01*
X51443809Y-79224285D01*
X51348571Y-79271904D01*
X51300952Y-79319523D01*
X51253333Y-79414761D01*
X51253333Y-79605238D01*
X51300952Y-79700476D01*
X51348571Y-79748095D01*
X51443809Y-79795714D01*
%TO.C,R1*%
X109022380Y-119546666D02*
X108546190Y-119880000D01*
X109022380Y-120118095D02*
X108022380Y-120118095D01*
X108022380Y-119737142D01*
X108070000Y-119641904D01*
X108117619Y-119594285D01*
X108212857Y-119546666D01*
X108355714Y-119546666D01*
X108450952Y-119594285D01*
X108498571Y-119641904D01*
X108546190Y-119737142D01*
X108546190Y-120118095D01*
X109022380Y-118594285D02*
X109022380Y-119165714D01*
X109022380Y-118880000D02*
X108022380Y-118880000D01*
X108165238Y-118975238D01*
X108260476Y-119070476D01*
X108308095Y-119165714D01*
%TO.C,U5*%
X39868095Y-108452380D02*
X39868095Y-109261904D01*
X39915714Y-109357142D01*
X39963333Y-109404761D01*
X40058571Y-109452380D01*
X40249047Y-109452380D01*
X40344285Y-109404761D01*
X40391904Y-109357142D01*
X40439523Y-109261904D01*
X40439523Y-108452380D01*
X41391904Y-108452380D02*
X40915714Y-108452380D01*
X40868095Y-108928571D01*
X40915714Y-108880952D01*
X41010952Y-108833333D01*
X41249047Y-108833333D01*
X41344285Y-108880952D01*
X41391904Y-108928571D01*
X41439523Y-109023809D01*
X41439523Y-109261904D01*
X41391904Y-109357142D01*
X41344285Y-109404761D01*
X41249047Y-109452380D01*
X41010952Y-109452380D01*
X40915714Y-109404761D01*
X40868095Y-109357142D01*
%TO.C,D3*%
X123721904Y-107782380D02*
X123721904Y-106782380D01*
X123960000Y-106782380D01*
X124102857Y-106830000D01*
X124198095Y-106925238D01*
X124245714Y-107020476D01*
X124293333Y-107210952D01*
X124293333Y-107353809D01*
X124245714Y-107544285D01*
X124198095Y-107639523D01*
X124102857Y-107734761D01*
X123960000Y-107782380D01*
X123721904Y-107782380D01*
X124626666Y-106782380D02*
X125245714Y-106782380D01*
X124912380Y-107163333D01*
X125055238Y-107163333D01*
X125150476Y-107210952D01*
X125198095Y-107258571D01*
X125245714Y-107353809D01*
X125245714Y-107591904D01*
X125198095Y-107687142D01*
X125150476Y-107734761D01*
X125055238Y-107782380D01*
X124769523Y-107782380D01*
X124674285Y-107734761D01*
X124626666Y-107687142D01*
%TO.C,C2*%
X133147142Y-83986666D02*
X133194761Y-84034285D01*
X133242380Y-84177142D01*
X133242380Y-84272380D01*
X133194761Y-84415238D01*
X133099523Y-84510476D01*
X133004285Y-84558095D01*
X132813809Y-84605714D01*
X132670952Y-84605714D01*
X132480476Y-84558095D01*
X132385238Y-84510476D01*
X132290000Y-84415238D01*
X132242380Y-84272380D01*
X132242380Y-84177142D01*
X132290000Y-84034285D01*
X132337619Y-83986666D01*
X132337619Y-83605714D02*
X132290000Y-83558095D01*
X132242380Y-83462857D01*
X132242380Y-83224761D01*
X132290000Y-83129523D01*
X132337619Y-83081904D01*
X132432857Y-83034285D01*
X132528095Y-83034285D01*
X132670952Y-83081904D01*
X133242380Y-83653333D01*
X133242380Y-83034285D01*
%TO.C,C1*%
X34857142Y-129706666D02*
X34904761Y-129754285D01*
X34952380Y-129897142D01*
X34952380Y-129992380D01*
X34904761Y-130135238D01*
X34809523Y-130230476D01*
X34714285Y-130278095D01*
X34523809Y-130325714D01*
X34380952Y-130325714D01*
X34190476Y-130278095D01*
X34095238Y-130230476D01*
X34000000Y-130135238D01*
X33952380Y-129992380D01*
X33952380Y-129897142D01*
X34000000Y-129754285D01*
X34047619Y-129706666D01*
X34952380Y-128754285D02*
X34952380Y-129325714D01*
X34952380Y-129040000D02*
X33952380Y-129040000D01*
X34095238Y-129135238D01*
X34190476Y-129230476D01*
X34238095Y-129325714D01*
%TO.C,R9*%
X112863333Y-92542380D02*
X112530000Y-92066190D01*
X112291904Y-92542380D02*
X112291904Y-91542380D01*
X112672857Y-91542380D01*
X112768095Y-91590000D01*
X112815714Y-91637619D01*
X112863333Y-91732857D01*
X112863333Y-91875714D01*
X112815714Y-91970952D01*
X112768095Y-92018571D01*
X112672857Y-92066190D01*
X112291904Y-92066190D01*
X113339523Y-92542380D02*
X113530000Y-92542380D01*
X113625238Y-92494761D01*
X113672857Y-92447142D01*
X113768095Y-92304285D01*
X113815714Y-92113809D01*
X113815714Y-91732857D01*
X113768095Y-91637619D01*
X113720476Y-91590000D01*
X113625238Y-91542380D01*
X113434761Y-91542380D01*
X113339523Y-91590000D01*
X113291904Y-91637619D01*
X113244285Y-91732857D01*
X113244285Y-91970952D01*
X113291904Y-92066190D01*
X113339523Y-92113809D01*
X113434761Y-92161428D01*
X113625238Y-92161428D01*
X113720476Y-92113809D01*
X113768095Y-92066190D01*
X113815714Y-91970952D01*
%TO.C,R3*%
X31582380Y-127166666D02*
X31106190Y-127500000D01*
X31582380Y-127738095D02*
X30582380Y-127738095D01*
X30582380Y-127357142D01*
X30630000Y-127261904D01*
X30677619Y-127214285D01*
X30772857Y-127166666D01*
X30915714Y-127166666D01*
X31010952Y-127214285D01*
X31058571Y-127261904D01*
X31106190Y-127357142D01*
X31106190Y-127738095D01*
X30582380Y-126833333D02*
X30582380Y-126214285D01*
X30963333Y-126547619D01*
X30963333Y-126404761D01*
X31010952Y-126309523D01*
X31058571Y-126261904D01*
X31153809Y-126214285D01*
X31391904Y-126214285D01*
X31487142Y-126261904D01*
X31534761Y-126309523D01*
X31582380Y-126404761D01*
X31582380Y-126690476D01*
X31534761Y-126785714D01*
X31487142Y-126833333D01*
%TO.C,J1*%
X34807380Y-66630833D02*
X35521666Y-66630833D01*
X35664523Y-66678452D01*
X35759761Y-66773690D01*
X35807380Y-66916547D01*
X35807380Y-67011785D01*
X35807380Y-65630833D02*
X35807380Y-66202261D01*
X35807380Y-65916547D02*
X34807380Y-65916547D01*
X34950238Y-66011785D01*
X35045476Y-66107023D01*
X35093095Y-66202261D01*
%TO.C,R5*%
X112863333Y-154742380D02*
X112530000Y-154266190D01*
X112291904Y-154742380D02*
X112291904Y-153742380D01*
X112672857Y-153742380D01*
X112768095Y-153790000D01*
X112815714Y-153837619D01*
X112863333Y-153932857D01*
X112863333Y-154075714D01*
X112815714Y-154170952D01*
X112768095Y-154218571D01*
X112672857Y-154266190D01*
X112291904Y-154266190D01*
X113768095Y-153742380D02*
X113291904Y-153742380D01*
X113244285Y-154218571D01*
X113291904Y-154170952D01*
X113387142Y-154123333D01*
X113625238Y-154123333D01*
X113720476Y-154170952D01*
X113768095Y-154218571D01*
X113815714Y-154313809D01*
X113815714Y-154551904D01*
X113768095Y-154647142D01*
X113720476Y-154694761D01*
X113625238Y-154742380D01*
X113387142Y-154742380D01*
X113291904Y-154694761D01*
X113244285Y-154647142D01*
%TO.C,J6*%
X108442380Y-107013333D02*
X109156666Y-107013333D01*
X109299523Y-107060952D01*
X109394761Y-107156190D01*
X109442380Y-107299047D01*
X109442380Y-107394285D01*
X108442380Y-106108571D02*
X108442380Y-106299047D01*
X108490000Y-106394285D01*
X108537619Y-106441904D01*
X108680476Y-106537142D01*
X108870952Y-106584761D01*
X109251904Y-106584761D01*
X109347142Y-106537142D01*
X109394761Y-106489523D01*
X109442380Y-106394285D01*
X109442380Y-106203809D01*
X109394761Y-106108571D01*
X109347142Y-106060952D01*
X109251904Y-106013333D01*
X109013809Y-106013333D01*
X108918571Y-106060952D01*
X108870952Y-106108571D01*
X108823333Y-106203809D01*
X108823333Y-106394285D01*
X108870952Y-106489523D01*
X108918571Y-106537142D01*
X109013809Y-106584761D01*
%TO.C,J8*%
X55117380Y-62780833D02*
X55831666Y-62780833D01*
X55974523Y-62828452D01*
X56069761Y-62923690D01*
X56117380Y-63066547D01*
X56117380Y-63161785D01*
X55545952Y-62161785D02*
X55498333Y-62257023D01*
X55450714Y-62304642D01*
X55355476Y-62352261D01*
X55307857Y-62352261D01*
X55212619Y-62304642D01*
X55165000Y-62257023D01*
X55117380Y-62161785D01*
X55117380Y-61971309D01*
X55165000Y-61876071D01*
X55212619Y-61828452D01*
X55307857Y-61780833D01*
X55355476Y-61780833D01*
X55450714Y-61828452D01*
X55498333Y-61876071D01*
X55545952Y-61971309D01*
X55545952Y-62161785D01*
X55593571Y-62257023D01*
X55641190Y-62304642D01*
X55736428Y-62352261D01*
X55926904Y-62352261D01*
X56022142Y-62304642D01*
X56069761Y-62257023D01*
X56117380Y-62161785D01*
X56117380Y-61971309D01*
X56069761Y-61876071D01*
X56022142Y-61828452D01*
X55926904Y-61780833D01*
X55736428Y-61780833D01*
X55641190Y-61828452D01*
X55593571Y-61876071D01*
X55545952Y-61971309D01*
%TO.C,REF\u002A\u002A*%
X154876666Y-159512380D02*
X154543333Y-159036190D01*
X154305238Y-159512380D02*
X154305238Y-158512380D01*
X154686190Y-158512380D01*
X154781428Y-158560000D01*
X154829047Y-158607619D01*
X154876666Y-158702857D01*
X154876666Y-158845714D01*
X154829047Y-158940952D01*
X154781428Y-158988571D01*
X154686190Y-159036190D01*
X154305238Y-159036190D01*
X155305238Y-158988571D02*
X155638571Y-158988571D01*
X155781428Y-159512380D02*
X155305238Y-159512380D01*
X155305238Y-158512380D01*
X155781428Y-158512380D01*
X156543333Y-158988571D02*
X156210000Y-158988571D01*
X156210000Y-159512380D02*
X156210000Y-158512380D01*
X156686190Y-158512380D01*
X157210000Y-158512380D02*
X157210000Y-158750476D01*
X156971904Y-158655238D02*
X157210000Y-158750476D01*
X157448095Y-158655238D01*
X157067142Y-158940952D02*
X157210000Y-158750476D01*
X157352857Y-158940952D01*
X157971904Y-158512380D02*
X157971904Y-158750476D01*
X157733809Y-158655238D02*
X157971904Y-158750476D01*
X158210000Y-158655238D01*
X157829047Y-158940952D02*
X157971904Y-158750476D01*
X158114761Y-158940952D01*
%TO.C,U1*%
X117358095Y-121592380D02*
X117358095Y-122401904D01*
X117405714Y-122497142D01*
X117453333Y-122544761D01*
X117548571Y-122592380D01*
X117739047Y-122592380D01*
X117834285Y-122544761D01*
X117881904Y-122497142D01*
X117929523Y-122401904D01*
X117929523Y-121592380D01*
X118929523Y-122592380D02*
X118358095Y-122592380D01*
X118643809Y-122592380D02*
X118643809Y-121592380D01*
X118548571Y-121735238D01*
X118453333Y-121830476D01*
X118358095Y-121878095D01*
%TO.C,J7*%
X124101666Y-158417380D02*
X124101666Y-159131666D01*
X124054047Y-159274523D01*
X123958809Y-159369761D01*
X123815952Y-159417380D01*
X123720714Y-159417380D01*
X124482619Y-158417380D02*
X125149285Y-158417380D01*
X124720714Y-159417380D01*
%TO.C,R14*%
X111592380Y-75572857D02*
X111116190Y-75906190D01*
X111592380Y-76144285D02*
X110592380Y-76144285D01*
X110592380Y-75763333D01*
X110640000Y-75668095D01*
X110687619Y-75620476D01*
X110782857Y-75572857D01*
X110925714Y-75572857D01*
X111020952Y-75620476D01*
X111068571Y-75668095D01*
X111116190Y-75763333D01*
X111116190Y-76144285D01*
X111592380Y-74620476D02*
X111592380Y-75191904D01*
X111592380Y-74906190D02*
X110592380Y-74906190D01*
X110735238Y-75001428D01*
X110830476Y-75096666D01*
X110878095Y-75191904D01*
X110925714Y-73763333D02*
X111592380Y-73763333D01*
X110544761Y-74001428D02*
X111259047Y-74239523D01*
X111259047Y-73620476D01*
%TO.C,C3*%
X111627142Y-64916666D02*
X111674761Y-64964285D01*
X111722380Y-65107142D01*
X111722380Y-65202380D01*
X111674761Y-65345238D01*
X111579523Y-65440476D01*
X111484285Y-65488095D01*
X111293809Y-65535714D01*
X111150952Y-65535714D01*
X110960476Y-65488095D01*
X110865238Y-65440476D01*
X110770000Y-65345238D01*
X110722380Y-65202380D01*
X110722380Y-65107142D01*
X110770000Y-64964285D01*
X110817619Y-64916666D01*
X110722380Y-64583333D02*
X110722380Y-63964285D01*
X111103333Y-64297619D01*
X111103333Y-64154761D01*
X111150952Y-64059523D01*
X111198571Y-64011904D01*
X111293809Y-63964285D01*
X111531904Y-63964285D01*
X111627142Y-64011904D01*
X111674761Y-64059523D01*
X111722380Y-64154761D01*
X111722380Y-64440476D01*
X111674761Y-64535714D01*
X111627142Y-64583333D01*
%TO.C,D4*%
X94511904Y-101402380D02*
X94511904Y-100402380D01*
X94750000Y-100402380D01*
X94892857Y-100450000D01*
X94988095Y-100545238D01*
X95035714Y-100640476D01*
X95083333Y-100830952D01*
X95083333Y-100973809D01*
X95035714Y-101164285D01*
X94988095Y-101259523D01*
X94892857Y-101354761D01*
X94750000Y-101402380D01*
X94511904Y-101402380D01*
X95940476Y-100735714D02*
X95940476Y-101402380D01*
X95702380Y-100354761D02*
X95464285Y-101069047D01*
X96083333Y-101069047D01*
%TO.C,R2*%
X98363333Y-138702380D02*
X98030000Y-138226190D01*
X97791904Y-138702380D02*
X97791904Y-137702380D01*
X98172857Y-137702380D01*
X98268095Y-137750000D01*
X98315714Y-137797619D01*
X98363333Y-137892857D01*
X98363333Y-138035714D01*
X98315714Y-138130952D01*
X98268095Y-138178571D01*
X98172857Y-138226190D01*
X97791904Y-138226190D01*
X98744285Y-137797619D02*
X98791904Y-137750000D01*
X98887142Y-137702380D01*
X99125238Y-137702380D01*
X99220476Y-137750000D01*
X99268095Y-137797619D01*
X99315714Y-137892857D01*
X99315714Y-137988095D01*
X99268095Y-138130952D01*
X98696666Y-138702380D01*
X99315714Y-138702380D01*
%TO.C,J3*%
X54272380Y-135333333D02*
X54986666Y-135333333D01*
X55129523Y-135380952D01*
X55224761Y-135476190D01*
X55272380Y-135619047D01*
X55272380Y-135714285D01*
X54272380Y-134952380D02*
X54272380Y-134333333D01*
X54653333Y-134666666D01*
X54653333Y-134523809D01*
X54700952Y-134428571D01*
X54748571Y-134380952D01*
X54843809Y-134333333D01*
X55081904Y-134333333D01*
X55177142Y-134380952D01*
X55224761Y-134428571D01*
X55272380Y-134523809D01*
X55272380Y-134809523D01*
X55224761Y-134904761D01*
X55177142Y-134952380D01*
%TO.C,Q1*%
X137064761Y-114107619D02*
X136969523Y-114060000D01*
X136874285Y-113964761D01*
X136731428Y-113821904D01*
X136636190Y-113774285D01*
X136540952Y-113774285D01*
X136588571Y-114012380D02*
X136493333Y-113964761D01*
X136398095Y-113869523D01*
X136350476Y-113679047D01*
X136350476Y-113345714D01*
X136398095Y-113155238D01*
X136493333Y-113060000D01*
X136588571Y-113012380D01*
X136779047Y-113012380D01*
X136874285Y-113060000D01*
X136969523Y-113155238D01*
X137017142Y-113345714D01*
X137017142Y-113679047D01*
X136969523Y-113869523D01*
X136874285Y-113964761D01*
X136779047Y-114012380D01*
X136588571Y-114012380D01*
X137969523Y-114012380D02*
X137398095Y-114012380D01*
X137683809Y-114012380D02*
X137683809Y-113012380D01*
X137588571Y-113155238D01*
X137493333Y-113250476D01*
X137398095Y-113298095D01*
D11*
%TO.C,U4*%
X77405000Y-67190000D02*
X77405000Y-68840000D01*
X95305000Y-72490000D02*
X95305000Y-67190000D01*
X77405000Y-72490000D02*
X95305000Y-72490000D01*
X95305000Y-67190000D02*
X77405000Y-67190000D01*
X77405000Y-70840000D02*
X77405000Y-72490000D01*
X77405000Y-70840000D02*
G75*
G03*
X77405000Y-68840000I0J1000000D01*
G01*
%TO.C,J4*%
X58420000Y-116330000D02*
X58420000Y-113670000D01*
X58420000Y-116330000D02*
X81340000Y-116330000D01*
X58420000Y-113670000D02*
X81340000Y-113670000D01*
X55820000Y-116330000D02*
X55820000Y-115000000D01*
X57150000Y-116330000D02*
X55820000Y-116330000D01*
X81340000Y-116330000D02*
X81340000Y-113670000D01*
%TO.C,C5*%
X146060000Y-66040000D02*
X144470000Y-66040000D01*
X144470000Y-60670000D02*
X122230000Y-60670000D01*
X144470000Y-71410000D02*
X144470000Y-60670000D01*
X120640000Y-66040000D02*
X122230000Y-66040000D01*
X122230000Y-60670000D02*
X122230000Y-71410000D01*
X122230000Y-71410000D02*
X144470000Y-71410000D01*
%TO.C,R4*%
X95900000Y-87280000D02*
X92060000Y-87280000D01*
X95900000Y-85440000D02*
X92060000Y-85440000D01*
%TO.C,R8*%
X61880000Y-81930000D02*
X61880000Y-78090000D01*
X60040000Y-81930000D02*
X60040000Y-78090000D01*
%TO.C,C4*%
X76821000Y-61310000D02*
X78079000Y-61310000D01*
X76821000Y-63150000D02*
X78079000Y-63150000D01*
%TO.C,R7*%
X125380000Y-142890000D02*
X125380000Y-139050000D01*
X123540000Y-142890000D02*
X123540000Y-139050000D01*
%TO.C,R11*%
X133000000Y-147970000D02*
X133000000Y-144130000D01*
X131160000Y-147970000D02*
X131160000Y-144130000D01*
%TO.C,R13*%
X56800000Y-100980000D02*
X56800000Y-97140000D01*
X54960000Y-100980000D02*
X54960000Y-97140000D01*
%TO.C,J9*%
X148650000Y-97730000D02*
X148650000Y-99060000D01*
X145990000Y-100390000D02*
X148650000Y-100390000D01*
X147320000Y-97730000D02*
X148650000Y-97730000D01*
X145990000Y-100270000D02*
X145990000Y-100390000D01*
X148650000Y-100270000D02*
X148650000Y-100390000D01*
%TO.C,R10*%
X138080000Y-107330000D02*
X138080000Y-103490000D01*
X136240000Y-107330000D02*
X136240000Y-103490000D01*
%TO.C,D2*%
X125110000Y-116490000D02*
X121270000Y-116490000D01*
X125110000Y-114650000D02*
X121270000Y-114650000D01*
%TO.C,U3*%
X37980000Y-81210000D02*
X37980000Y-91490000D01*
X43280000Y-91490000D02*
X43280000Y-81210000D01*
X43280000Y-81210000D02*
X37980000Y-81210000D01*
X41630000Y-91490000D02*
X43280000Y-91490000D01*
X37980000Y-91490000D02*
X39630000Y-91490000D01*
X41630000Y-91490000D02*
G75*
G03*
X39630000Y-91490000I-1000000J0D01*
G01*
%TO.C,U2*%
X100380000Y-155060000D02*
X100380000Y-153410000D01*
X90100000Y-149760000D02*
X90100000Y-155060000D01*
X90100000Y-155060000D02*
X100380000Y-155060000D01*
X100380000Y-149760000D02*
X90100000Y-149760000D01*
X100380000Y-151410000D02*
X100380000Y-149760000D01*
X100380000Y-151410000D02*
G75*
G03*
X100380000Y-153410000I0J-1000000D01*
G01*
%TO.C,J5*%
X55850000Y-148670000D02*
X55850000Y-151330000D01*
X78770000Y-148670000D02*
X78770000Y-151330000D01*
X78770000Y-151330000D02*
X55850000Y-151330000D01*
X80040000Y-148670000D02*
X81370000Y-148670000D01*
X78770000Y-148670000D02*
X55850000Y-148670000D01*
X81370000Y-148670000D02*
X81370000Y-150000000D01*
%TO.C,D1*%
X93330000Y-131160000D02*
X97170000Y-131160000D01*
X93330000Y-133000000D02*
X97170000Y-133000000D01*
%TO.C,R12*%
X111110000Y-99980000D02*
X114950000Y-99980000D01*
X111110000Y-98140000D02*
X114950000Y-98140000D01*
%TO.C,R6*%
X54260000Y-81930000D02*
X54260000Y-78090000D01*
X52420000Y-81930000D02*
X52420000Y-78090000D01*
%TO.C,R1*%
X111410000Y-121300000D02*
X111410000Y-117460000D01*
X109570000Y-121300000D02*
X109570000Y-117460000D01*
%TO.C,U5*%
X37980000Y-108000000D02*
X39630000Y-108000000D01*
X43280000Y-108000000D02*
X43280000Y-97720000D01*
X41630000Y-108000000D02*
X43280000Y-108000000D01*
X37980000Y-97720000D02*
X37980000Y-108000000D01*
X43280000Y-97720000D02*
X37980000Y-97720000D01*
X41630000Y-108000000D02*
G75*
G03*
X39630000Y-108000000I-1000000J0D01*
G01*
%TO.C,D3*%
X126380000Y-104490000D02*
X122540000Y-104490000D01*
X126380000Y-106330000D02*
X122540000Y-106330000D01*
%TO.C,C2*%
X137160000Y-90280000D02*
X137160000Y-89940000D01*
X133790000Y-77700000D02*
X133790000Y-89940000D01*
X133790000Y-89940000D02*
X140530000Y-89940000D01*
X137160000Y-77360000D02*
X137160000Y-77700000D01*
X140530000Y-77700000D02*
X133790000Y-77700000D01*
X140530000Y-89940000D02*
X140530000Y-77700000D01*
%TO.C,C1*%
X39370000Y-141000000D02*
X39370000Y-139160000D01*
X35500000Y-139160000D02*
X43240000Y-139160000D01*
X43240000Y-119920000D02*
X35500000Y-119920000D01*
X39370000Y-118080000D02*
X39370000Y-119920000D01*
X35500000Y-119920000D02*
X35500000Y-139160000D01*
X43240000Y-139160000D02*
X43240000Y-119920000D01*
%TO.C,R9*%
X114950000Y-89250000D02*
X111110000Y-89250000D01*
X114950000Y-91090000D02*
X111110000Y-91090000D01*
%TO.C,R3*%
X30130000Y-125080000D02*
X30130000Y-128920000D01*
X28290000Y-125080000D02*
X28290000Y-128920000D01*
%TO.C,J1*%
X39395000Y-64967500D02*
X44535000Y-64967500D01*
X39395000Y-67627500D02*
X39395000Y-64967500D01*
X39395000Y-67627500D02*
X44535000Y-67627500D01*
X36795000Y-66297500D02*
X36795000Y-64967500D01*
X44535000Y-67627500D02*
X44535000Y-64967500D01*
X36795000Y-64967500D02*
X38125000Y-64967500D01*
%TO.C,R5*%
X111110000Y-155290000D02*
X114950000Y-155290000D01*
X111110000Y-157130000D02*
X114950000Y-157130000D01*
%TO.C,J6*%
X110430000Y-106680000D02*
X110430000Y-105350000D01*
X113030000Y-108010000D02*
X115630000Y-108010000D01*
X110430000Y-105350000D02*
X111760000Y-105350000D01*
X115630000Y-108010000D02*
X115630000Y-105350000D01*
X113030000Y-105350000D02*
X115630000Y-105350000D01*
X113030000Y-108010000D02*
X113030000Y-105350000D01*
%TO.C,J8*%
X59705000Y-63777500D02*
X64845000Y-63777500D01*
X59705000Y-61117500D02*
X64845000Y-61117500D01*
X57105000Y-62447500D02*
X57105000Y-61117500D01*
X64845000Y-63777500D02*
X64845000Y-61117500D01*
X57105000Y-61117500D02*
X58435000Y-61117500D01*
X59705000Y-63777500D02*
X59705000Y-61117500D01*
%TO.C,U1*%
X120770000Y-133420000D02*
X120770000Y-123140000D01*
X120770000Y-123140000D02*
X119120000Y-123140000D01*
X115470000Y-133420000D02*
X120770000Y-133420000D01*
X117120000Y-123140000D02*
X115470000Y-123140000D01*
X115470000Y-123140000D02*
X115470000Y-133420000D01*
X117120000Y-123140000D02*
G75*
G03*
X119120000Y-123140000I1000000J0D01*
G01*
%TO.C,J7*%
X125765000Y-154925000D02*
X125765000Y-149785000D01*
X124435000Y-157525000D02*
X123105000Y-157525000D01*
X125765000Y-154925000D02*
X123105000Y-154925000D01*
X123105000Y-157525000D02*
X123105000Y-156195000D01*
X123105000Y-154925000D02*
X123105000Y-149785000D01*
X125765000Y-149785000D02*
X123105000Y-149785000D01*
%TO.C,R14*%
X110140000Y-73010000D02*
X110140000Y-76850000D01*
X108300000Y-73010000D02*
X108300000Y-76850000D01*
%TO.C,C3*%
X108300000Y-64121000D02*
X108300000Y-65379000D01*
X110140000Y-64121000D02*
X110140000Y-65379000D01*
%TO.C,D4*%
X93330000Y-101950000D02*
X97170000Y-101950000D01*
X93330000Y-103790000D02*
X97170000Y-103790000D01*
%TO.C,R2*%
X96610000Y-141090000D02*
X100450000Y-141090000D01*
X96610000Y-139250000D02*
X100450000Y-139250000D01*
%TO.C,J3*%
X58420000Y-136330000D02*
X81340000Y-136330000D01*
X58420000Y-133670000D02*
X81340000Y-133670000D01*
X55820000Y-136330000D02*
X55820000Y-135000000D01*
X58420000Y-136330000D02*
X58420000Y-133670000D01*
X57150000Y-136330000D02*
X55820000Y-136330000D01*
X81340000Y-136330000D02*
X81340000Y-133670000D01*
%TO.C,Q1*%
X134162916Y-115605098D02*
X133271961Y-114714144D01*
X133271961Y-114714144D02*
X132494144Y-115491961D01*
X132494144Y-115491961D02*
X133385098Y-116382916D01*
X133385326Y-116382629D02*
G75*
G03*
X134162916Y-115605098I3774674J-2997371D01*
G01*
%TD*%
M02*
