M48
; DRILL file {KiCad (6.0.11)} date Sun Apr 16 19:35:40 2023
; FORMAT={-:-/ absolute / inch / decimal}
; #@! TF.CreationDate,2023-04-16T19:35:40-07:00
; #@! TF.GenerationSoftware,Kicad,Pcbnew,(6.0.11)
; #@! TF.FileFunction,Plated,1,2,PTH
FMAT,2
INCH
; #@! TA.AperFunction,Plated,PTH,ComponentDrill
T1C0.0276
; #@! TA.AperFunction,Plated,PTH,ComponentDrill
T2C0.0315
; #@! TA.AperFunction,Plated,PTH,ComponentDrill
T3C0.0394
%
G90
G05
T1
X1.15Y-4.9
X1.15Y-5.1
X2.1Y-3.05
X2.1Y-3.25
X2.2Y-3.8
X2.2Y-4.0
X2.4Y-3.05
X2.4Y-3.25
X3.6Y-3.4
X3.65Y-4.05
X3.65Y-5.2
X3.7791Y-5.5185
X3.8Y-3.4
X3.85Y-4.05
X3.85Y-5.2
X3.9791Y-5.5185
X4.3Y-2.85
X4.3Y-3.05
X4.35Y-3.55
X4.35Y-3.9
X4.35Y-4.6
X4.35Y-4.8
X4.35Y-6.15
X4.55Y-3.55
X4.55Y-3.9
X4.55Y-6.15
X4.75Y-4.55
X4.8Y-4.15
X4.9Y-5.45
X4.9Y-5.65
X4.95Y-4.55
X5.0Y-4.15
X5.2Y-5.65
X5.2Y-5.85
X5.3Y-4.7
X5.4Y-4.05
X5.4Y-4.25
X5.4Y-4.8
X5.5Y-4.7
T2
X1.4496Y-3.2496
X1.4496Y-3.3496
X1.4496Y-3.4496
X1.4496Y-3.5496
X1.4496Y-3.8996
X1.4496Y-3.9996
X1.4496Y-4.0996
X1.4496Y-4.1996
X1.55Y-4.6079
X1.55Y-5.5921
X1.7496Y-3.2496
X1.7496Y-3.3496
X1.7496Y-3.4496
X1.7496Y-3.5496
X1.7496Y-3.8996
X1.7496Y-3.9996
X1.7496Y-4.0996
X1.7496Y-4.1996
X3.0Y-2.45
X3.0984Y-2.45
X3.0998Y-2.5996
X3.0998Y-2.8996
X3.1998Y-2.5996
X3.1998Y-2.8996
X3.2998Y-2.5996
X3.2998Y-2.8996
X3.3998Y-2.5996
X3.3998Y-2.8996
X3.4998Y-2.5996
X3.4998Y-2.8996
X3.5996Y-5.8504
X3.5996Y-6.1504
X3.5998Y-2.5996
X3.5998Y-2.8996
X3.6996Y-5.8504
X3.6996Y-6.1504
X3.6998Y-2.5996
X3.6998Y-2.8996
X3.7996Y-5.8504
X3.7996Y-6.1504
X3.8996Y-5.8504
X3.8996Y-6.1504
X4.3Y-2.5
X4.3Y-2.5984
X4.5004Y-4.9004
X4.5004Y-5.0004
X4.5004Y-5.1004
X4.5004Y-5.2004
X4.7087Y-2.6
X4.8004Y-4.9004
X4.8004Y-5.0004
X4.8004Y-5.1004
X4.8004Y-5.2004
X5.4Y-3.0047
X5.4Y-3.5953
X5.7913Y-2.6
T3
X1.501Y-2.6101
X1.601Y-2.6101
X1.701Y-2.6101
X2.25Y-4.5276
X2.25Y-5.315
X2.2512Y-5.9055
X2.3006Y-2.4586
X2.35Y-4.5276
X2.35Y-5.315
X2.3512Y-5.9055
X2.4006Y-2.4586
X2.45Y-4.5276
X2.45Y-5.315
X2.4512Y-5.9055
X2.5006Y-2.4586
X2.55Y-4.5276
X2.55Y-5.315
X2.5512Y-5.9055
X2.65Y-4.5276
X2.65Y-5.315
X2.6512Y-5.9055
X2.75Y-4.5276
X2.75Y-5.315
X2.7512Y-5.9055
X2.85Y-4.5276
X2.85Y-5.315
X2.8512Y-5.9055
X2.95Y-4.5276
X2.95Y-5.315
X2.9512Y-5.9055
X3.05Y-4.5276
X3.05Y-5.315
X3.0512Y-5.9055
X3.15Y-4.5276
X3.15Y-5.315
X3.1512Y-5.9055
X4.4Y-4.2
X4.5Y-4.2
X4.899Y-5.9494
X4.899Y-6.0494
X4.899Y-6.1494
X5.8Y-3.9
T0
M30
